<svg xmlns="http://www.w3.org/2000/svg" width="512" height="512" viewBox="0 0 512 512" fill="none" role="img" aria-label="FreeDesign mark">
  <rect x="56" y="56" width="400" height="400" rx="88" stroke="#1B1F2A" stroke-width="32"/>
  <path d="M260 94C260 94 360 214 360 298C360 362.617 307.617 415 243 415C178.383 415 126 362.617 126 298C126 214 226 94 226 94C236.2 81.4 249.8 81.4 260 94Z" fill="#1B1F2A"/>

  <defs>
    <linearGradient id="gg" x1="130" y1="372" x2="402" y2="152" gradientUnits="userSpaceOnUse">
      <stop offset="0" stop-color="#00D4FF"/>
      <stop offset="0.33" stop-color="#7C5CFF"/>
      <stop offset="0.66" stop-color="#FF3D81"/>
      <stop offset="1" stop-color="#FFB800"/>
    </linearGradient>
  </defs>
  <path d="M150 372C198 304 266 274 324 250C382 226 416 184 416 132" stroke="url(#gg)" stroke-width="36" stroke-linecap="round"/>
  <circle cx="162" cy="362" r="22" fill="#00D4FF"/>
</svg>
